# xmcd CD database file
#
# Track frame offsets:
#	150
#	88655
#	220769
#	314401
#
# Disc length: 4569 seconds
#
# Revision: 0
# Processed by: cddbd v1.5.2PL0 Copyright (c) Steve Scherf et al.
# Submitted via: CDex 1.51
#
DISCID=3011d704
DTITLE=yaksha - yaksha
DYEAR=1900
DGENRE=New Age
TTITLE0=chorrico de agua
TTITLE1=mar blanco.....
TTITLE2=silencio
TTITLE3=la casita caracol
EXTD=
EXTT0=
EXTT1=
EXTT2=
EXTT3=
PLAYORDER=
